<?xml version="1.0" encoding="utf-8"?>
<svg version="1.1" id="Layer_1"
xmlns="http://www.w3.org/2000/svg"
xmlns:xlink="http://www.w3.org/1999/xlink"
width="64px" height="64px"
xml:space="preserve">
<g id="PathID_1" transform="matrix(1.99403, 0, -8.18422e-008, 0.936165, -2.75, 54.75)" opacity="1">
<path style="fill:#8BC34A;fill-opacity:1" d="M13.15 -0.05L3.35 -37.45L10.05 -37.45L19.75 -0.05L13.15 -0.05M22.7 -37.45L29.3 -37.45L23.25 -14.05L21.9 -14.05L19.1 -23.5L22.7 -37.45" />
</g>
<g id="PathID_2" transform="matrix(1.99403, 0, -8.18422e-008, 0.936165, -2.75, 54.75)" opacity="1">
</g>
<g id="PathID_3" transform="matrix(0.522846, 0, -0.0313102, 0.0514267, 31.8, 14.1)" opacity="1">
<path style="fill:#8BC34A;fill-opacity:1" d="M51.5 -51.5L51.5 51.5L-51.5 51.5L-51.5 -51.5L51.5 -51.5" />
</g>
<g id="PathID_4" transform="matrix(0.522846, 0, -0.0313102, 0.0514267, 31.8, 14.1)" opacity="1">
</g>
</svg>
