<?xml version="1.0" encoding="utf-8"?>
<svg version="1.1" id="Layer_1"
xmlns="http://www.w3.org/2000/svg"
xmlns:xlink="http://www.w3.org/1999/xlink"
width="1920px" height="187px"
xml:space="preserve">
<g id="PathID_1" transform="matrix(1, 0, 0, 1, 1023.9, 131.5)" opacity="1">
<path style="fill:#3F3F3F;fill-opacity:1" d="M-1307.65 418.25L1307.7 418.25L1307.7 -418.25L-1307.65 -418.25L-1307.65 418.25" />
</g>
<g id="PathID_2" transform="matrix(1, 0, 0, 1, 1023.9, 131.5)" opacity="1">
<path style="fill:none;stroke-width:1;stroke-linecap:round;stroke-linejoin:round;stroke-miterlimit:3;stroke:#000000;stroke-opacity:1" d="M-1307.65 -418.25L1307.7 -418.25L1307.7 418.25L-1307.65 418.25L-1307.65 -418.25z" />
</g>
<g id="PathID_3" transform="matrix(2.08554, 0, -0.0110542, 0.979062, 272.55, 64.6)" opacity="1">
<path style="fill:#8BC34A;fill-opacity:1" d="M13.15 -0.05L3.35 -37.45L10.05 -37.45L19.75 -0.05L13.15 -0.05M22.7 -37.45L29.3 -37.45L23.25 -14.05L21.9 -14.05L19.1 -23.5L22.7 -37.45" />
</g>
<g id="PathID_4" transform="matrix(2.08554, 0, -0.0110542, 0.979062, 272.55, 64.6)" opacity="1">
</g>
<g id="PathID_5" transform="matrix(0.546839, 0, -0.0333542, 0.0537831, 309.25, 22.1)" opacity="1">
<path style="fill:#8BC34A;fill-opacity:1" d="M51.5 -51.5L51.5 51.5L-51.5 51.5L-51.5 -51.5L51.5 -51.5" />
</g>
<g id="PathID_6" transform="matrix(0.546839, 0, -0.0333542, 0.0537831, 309.25, 22.1)" opacity="1">
</g>
<g id="PathID_7" transform="matrix(2.08554, 0, -0.0110542, 0.979062, 591.05, 63.85)" opacity="1">
<path style="fill:#8BC34A;fill-opacity:1" d="M13.15 -0.05L3.35 -37.45L10.05 -37.45L19.75 -0.05L13.15 -0.05M22.7 -37.45L29.3 -37.45L23.25 -14.05L21.9 -14.05L19.1 -23.5L22.7 -37.45" />
</g>
<g id="PathID_8" transform="matrix(2.08554, 0, -0.0110542, 0.979062, 591.05, 63.85)" opacity="1">
</g>
<g id="PathID_9" transform="matrix(0.546839, 0, -0.0333542, 0.0537831, 627.75, 21.35)" opacity="1">
<path style="fill:#8BC34A;fill-opacity:1" d="M51.5 -51.5L51.5 51.5L-51.5 51.5L-51.5 -51.5L51.5 -51.5" />
</g>
<g id="PathID_10" transform="matrix(0.546839, 0, -0.0333542, 0.0537831, 627.75, 21.35)" opacity="1">
</g>
<g id="PathID_11" transform="matrix(2.08554, 0, -0.0110542, 0.979062, 1170.6, 97.7)" opacity="1">
<path style="fill:#8BC34A;fill-opacity:1" d="M13.15 -0.05L3.35 -37.45L10.05 -37.45L19.75 -0.05L13.15 -0.05M22.7 -37.45L29.3 -37.45L23.25 -14.05L21.9 -14.05L19.1 -23.5L22.7 -37.45" />
</g>
<g id="PathID_12" transform="matrix(2.08554, 0, -0.0110542, 0.979062, 1170.6, 97.7)" opacity="1">
</g>
<g id="PathID_13" transform="matrix(0.546839, 0, -0.0333542, 0.0537831, 1207.3, 55.2)" opacity="1">
<path style="fill:#8BC34A;fill-opacity:1" d="M51.5 -51.5L51.5 51.5L-51.5 51.5L-51.5 -51.5L51.5 -51.5" />
</g>
<g id="PathID_14" transform="matrix(0.546839, 0, -0.0333542, 0.0537831, 1207.3, 55.2)" opacity="1">
</g>
<g id="PathID_15" transform="matrix(2.08554, 0, -0.0110542, 0.979062, 879.15, 125.75)" opacity="1">
<path style="fill:#8BC34A;fill-opacity:1" d="M13.15 -0.05L3.35 -37.45L10.05 -37.45L19.75 -0.05L13.15 -0.05M22.7 -37.45L29.3 -37.45L23.25 -14.05L21.9 -14.05L19.1 -23.5L22.7 -37.45" />
</g>
<g id="PathID_16" transform="matrix(2.08554, 0, -0.0110542, 0.979062, 879.15, 125.75)" opacity="1">
</g>
<g id="PathID_17" transform="matrix(0.546839, 0, -0.0333542, 0.0537831, 915.85, 83.25)" opacity="1">
<path style="fill:#8BC34A;fill-opacity:1" d="M51.5 -51.5L51.5 51.5L-51.5 51.5L-51.5 -51.5L51.5 -51.5" />
</g>
<g id="PathID_18" transform="matrix(0.546839, 0, -0.0333542, 0.0537831, 915.85, 83.25)" opacity="1">
</g>
<g id="PathID_19" transform="matrix(2.08554, 0, -0.0110542, 0.979062, 520.3, 161.55)" opacity="1">
<path style="fill:#8BC34A;fill-opacity:1" d="M13.15 -0.05L3.35 -37.45L10.05 -37.45L19.75 -0.05L13.15 -0.05M22.7 -37.45L29.3 -37.45L23.25 -14.05L21.9 -14.05L19.1 -23.5L22.7 -37.45" />
</g>
<g id="PathID_20" transform="matrix(2.08554, 0, -0.0110542, 0.979062, 520.3, 161.55)" opacity="1">
</g>
<g id="PathID_21" transform="matrix(0.546839, 0, -0.0333542, 0.0537831, 557, 119.05)" opacity="1">
<path style="fill:#8BC34A;fill-opacity:1" d="M51.5 -51.5L51.5 51.5L-51.5 51.5L-51.5 -51.5L51.5 -51.5" />
</g>
<g id="PathID_22" transform="matrix(0.546839, 0, -0.0333542, 0.0537831, 557, 119.05)" opacity="1">
</g>
<g id="PathID_23" transform="matrix(2.08554, 0, -0.0110542, 0.979062, 1320.25, 99.2)" opacity="1">
<path style="fill:#8BC34A;fill-opacity:1" d="M13.15 -0.05L3.35 -37.45L10.05 -37.45L19.75 -0.05L13.15 -0.05M22.7 -37.45L29.3 -37.45L23.25 -14.05L21.9 -14.05L19.1 -23.5L22.7 -37.45" />
</g>
<g id="PathID_24" transform="matrix(2.08554, 0, -0.0110542, 0.979062, 1320.25, 99.2)" opacity="1">
</g>
<g id="PathID_25" transform="matrix(0.546839, 0, -0.0333542, 0.0537831, 1356.95, 56.7)" opacity="1">
<path style="fill:#8BC34A;fill-opacity:1" d="M51.5 -51.5L51.5 51.5L-51.5 51.5L-51.5 -51.5L51.5 -51.5" />
</g>
<g id="PathID_26" transform="matrix(0.546839, 0, -0.0333542, 0.0537831, 1356.95, 56.7)" opacity="1">
</g>
<g id="PathID_27" transform="matrix(2.08554, 0, -0.0110542, 0.979062, 1420.7, 159.95)" opacity="1">
<path style="fill:#8BC34A;fill-opacity:1" d="M13.15 -0.05L3.35 -37.45L10.05 -37.45L19.75 -0.05L13.15 -0.05M22.7 -37.45L29.3 -37.45L23.25 -14.05L21.9 -14.05L19.1 -23.5L22.7 -37.45" />
</g>
<g id="PathID_28" transform="matrix(2.08554, 0, -0.0110542, 0.979062, 1420.7, 159.95)" opacity="1">
</g>
<g id="PathID_29" transform="matrix(0.546839, 0, -0.0333542, 0.0537831, 1457.4, 117.45)" opacity="1">
<path style="fill:#8BC34A;fill-opacity:1" d="M51.5 -51.5L51.5 51.5L-51.5 51.5L-51.5 -51.5L51.5 -51.5" />
</g>
<g id="PathID_30" transform="matrix(0.546839, 0, -0.0333542, 0.0537831, 1457.4, 117.45)" opacity="1">
</g>
<g id="PathID_31" transform="matrix(2.08554, 0, -0.0110542, 0.979062, 1541.75, 97.7)" opacity="1">
<path style="fill:#8BC34A;fill-opacity:1" d="M13.15 -0.05L3.35 -37.45L10.05 -37.45L19.75 -0.05L13.15 -0.05M22.7 -37.45L29.3 -37.45L23.25 -14.05L21.9 -14.05L19.1 -23.5L22.7 -37.45" />
</g>
<g id="PathID_32" transform="matrix(2.08554, 0, -0.0110542, 0.979062, 1541.75, 97.7)" opacity="1">
</g>
<g id="PathID_33" transform="matrix(0.546839, 0, -0.0333542, 0.0537831, 1578.45, 55.2)" opacity="1">
<path style="fill:#8BC34A;fill-opacity:1" d="M51.5 -51.5L51.5 51.5L-51.5 51.5L-51.5 -51.5L51.5 -51.5" />
</g>
<g id="PathID_34" transform="matrix(0.546839, 0, -0.0333542, 0.0537831, 1578.45, 55.2)" opacity="1">
</g>
<g id="PathID_35" transform="matrix(2.08554, 0, -0.0110542, 0.979062, 1761.85, 125.75)" opacity="1">
<path style="fill:#8BC34A;fill-opacity:1" d="M13.15 -0.05L3.35 -37.45L10.05 -37.45L19.75 -0.05L13.15 -0.05M22.7 -37.45L29.3 -37.45L23.25 -14.05L21.9 -14.05L19.1 -23.5L22.7 -37.45" />
</g>
<g id="PathID_36" transform="matrix(2.08554, 0, -0.0110542, 0.979062, 1761.85, 125.75)" opacity="1">
</g>
<g id="PathID_37" transform="matrix(0.546839, 0, -0.0333542, 0.0537831, 1798.55, 83.25)" opacity="1">
<path style="fill:#8BC34A;fill-opacity:1" d="M51.5 -51.5L51.5 51.5L-51.5 51.5L-51.5 -51.5L51.5 -51.5" />
</g>
<g id="PathID_38" transform="matrix(0.546839, 0, -0.0333542, 0.0537831, 1798.55, 83.25)" opacity="1">
</g>
<g id="PathID_39" transform="matrix(2.08554, 0, -0.0110542, 0.979062, 1882.95, 63.45)" opacity="1">
<path style="fill:#8BC34A;fill-opacity:1" d="M13.15 -0.05L3.35 -37.45L10.05 -37.45L19.75 -0.05L13.15 -0.05M22.7 -37.45L29.3 -37.45L23.25 -14.05L21.9 -14.05L19.1 -23.5L22.7 -37.45" />
</g>
<g id="PathID_40" transform="matrix(2.08554, 0, -0.0110542, 0.979062, 1882.95, 63.45)" opacity="1">
</g>
<g id="PathID_41" transform="matrix(0.546839, 0, -0.0333542, 0.0537831, 1919.65, 20.95)" opacity="1">
<path style="fill:#8BC34A;fill-opacity:1" d="M51.5 -51.5L51.5 51.5L-51.5 51.5L-51.5 -51.5L51.5 -51.5" />
</g>
<g id="PathID_42" transform="matrix(0.546839, 0, -0.0333542, 0.0537831, 1919.65, 20.95)" opacity="1">
</g>
<g id="PathID_43" transform="matrix(2.08554, 0, -0.0110542, 0.979062, -26.4, 189.6)" opacity="1">
<path style="fill:#8BC34A;fill-opacity:1" d="M13.15 -0.05L3.35 -37.45L10.05 -37.45L19.75 -0.05L13.15 -0.05M22.7 -37.45L29.3 -37.45L23.25 -14.05L21.9 -14.05L19.1 -23.5L22.7 -37.45" />
</g>
<g id="PathID_44" transform="matrix(2.08554, 0, -0.0110542, 0.979062, -26.4, 189.6)" opacity="1">
</g>
<g id="PathID_45" transform="matrix(0.546839, 0, -0.0333542, 0.0537831, 10.2, 147.1)" opacity="1">
<path style="fill:#8BC34A;fill-opacity:1" d="M51.5 -51.5L51.5 51.5L-51.5 51.5L-51.5 -51.5L51.5 -51.5" />
</g>
<g id="PathID_46" transform="matrix(0.546839, 0, -0.0333542, 0.0537831, 10.2, 147.1)" opacity="1">
</g>
<g id="PathID_47" transform="matrix(2.08554, 0, -0.0110542, 0.979062, 126.45, 160)" opacity="1">
<path style="fill:#8BC34A;fill-opacity:1" d="M13.15 -0.05L3.35 -37.45L10.05 -37.45L19.75 -0.05L13.15 -0.05M22.7 -37.45L29.3 -37.45L23.25 -14.05L21.9 -14.05L19.1 -23.5L22.7 -37.45" />
</g>
<g id="PathID_48" transform="matrix(2.08554, 0, -0.0110542, 0.979062, 126.45, 160)" opacity="1">
</g>
<g id="PathID_49" transform="matrix(0.546839, 0, -0.0333542, 0.0537831, 163.15, 117.5)" opacity="1">
<path style="fill:#8BC34A;fill-opacity:1" d="M51.5 -51.5L51.5 51.5L-51.5 51.5L-51.5 -51.5L51.5 -51.5" />
</g>
<g id="PathID_50" transform="matrix(0.546839, 0, -0.0333542, 0.0537831, 163.15, 117.5)" opacity="1">
</g>
<g id="PathID_51" transform="matrix(2.08554, 0, -0.0110542, 0.979062, 359.55, 160.4)" opacity="1">
<path style="fill:#8BC34A;fill-opacity:1" d="M13.15 -0.05L3.35 -37.45L10.05 -37.45L19.75 -0.05L13.15 -0.05M22.7 -37.45L29.3 -37.45L23.25 -14.05L21.9 -14.05L19.1 -23.5L22.7 -37.45" />
</g>
<g id="PathID_52" transform="matrix(2.08554, 0, -0.0110542, 0.979062, 359.55, 160.4)" opacity="1">
</g>
<g id="PathID_53" transform="matrix(0.546839, 0, -0.0333542, 0.0537831, 396.25, 117.9)" opacity="1">
<path style="fill:#8BC34A;fill-opacity:1" d="M51.5 -51.5L51.5 51.5L-51.5 51.5L-51.5 -51.5L51.5 -51.5" />
</g>
<g id="PathID_54" transform="matrix(0.546839, 0, -0.0333542, 0.0537831, 396.25, 117.9)" opacity="1">
</g>
<g id="PathID_55" transform="matrix(2.08554, 0, -0.0110542, 0.979062, 671, 98.05)" opacity="1">
<path style="fill:#8BC34A;fill-opacity:1" d="M13.15 -0.05L3.35 -37.45L10.05 -37.45L19.75 -0.05L13.15 -0.05M22.7 -37.45L29.3 -37.45L23.25 -14.05L21.9 -14.05L19.1 -23.5L22.7 -37.45" />
</g>
<g id="PathID_56" transform="matrix(2.08554, 0, -0.0110542, 0.979062, 671, 98.05)" opacity="1">
</g>
<g id="PathID_57" transform="matrix(0.546839, 0, -0.0333542, 0.0537831, 707.7, 55.55)" opacity="1">
<path style="fill:#8BC34A;fill-opacity:1" d="M51.5 -51.5L51.5 51.5L-51.5 51.5L-51.5 -51.5L51.5 -51.5" />
</g>
<g id="PathID_58" transform="matrix(0.546839, 0, -0.0333542, 0.0537831, 707.7, 55.55)" opacity="1">
</g>
<g id="PathID_59" transform="matrix(2.08554, 0, -0.0110542, 0.979062, 1081.1, 158.8)" opacity="1">
<path style="fill:#8BC34A;fill-opacity:1" d="M13.15 -0.05L3.35 -37.45L10.05 -37.45L19.75 -0.05L13.15 -0.05M22.7 -37.45L29.3 -37.45L23.25 -14.05L21.9 -14.05L19.1 -23.5L22.7 -37.45" />
</g>
<g id="PathID_60" transform="matrix(2.08554, 0, -0.0110542, 0.979062, 1081.1, 158.8)" opacity="1">
</g>
<g id="PathID_61" transform="matrix(0.546839, 0, -0.0333542, 0.0537831, 1117.8, 116.3)" opacity="1">
<path style="fill:#8BC34A;fill-opacity:1" d="M51.5 -51.5L51.5 51.5L-51.5 51.5L-51.5 -51.5L51.5 -51.5" />
</g>
<g id="PathID_62" transform="matrix(0.546839, 0, -0.0333542, 0.0537831, 1117.8, 116.3)" opacity="1">
</g>
<g id="PathID_63" transform="matrix(2.08554, 0, -0.0110542, 0.979062, 1108.7, 35)" opacity="1">
<path style="fill:#8BC34A;fill-opacity:1" d="M13.15 -0.05L3.35 -37.45L10.05 -37.45L19.75 -0.05L13.15 -0.05M22.7 -37.45L29.3 -37.45L23.25 -14.05L21.9 -14.05L19.1 -23.5L22.7 -37.45" />
</g>
<g id="PathID_64" transform="matrix(2.08554, 0, -0.0110542, 0.979062, 1108.7, 35)" opacity="1">
</g>
<g id="PathID_65" transform="matrix(0.546839, 0, -0.0333542, 0.0537831, 1145.4, -7.5)" opacity="1">
<path style="fill:#8BC34A;fill-opacity:1" d="M51.5 -51.5L51.5 51.5L-51.5 51.5L-51.5 -51.5L51.5 -51.5" />
</g>
<g id="PathID_66" transform="matrix(0.546839, 0, -0.0333542, 0.0537831, 1145.4, -7.5)" opacity="1">
</g>
<g id="PathID_67" transform="matrix(2.08554, 0, -0.0110542, 0.979062, 921.35, 34.25)" opacity="1">
<path style="fill:#8BC34A;fill-opacity:1" d="M13.15 -0.05L3.35 -37.45L10.05 -37.45L19.75 -0.05L13.15 -0.05M22.7 -37.45L29.3 -37.45L23.25 -14.05L21.9 -14.05L19.1 -23.5L22.7 -37.45" />
</g>
<g id="PathID_68" transform="matrix(2.08554, 0, -0.0110542, 0.979062, 921.35, 34.25)" opacity="1">
</g>
<g id="PathID_69" transform="matrix(0.546839, 0, -0.0333542, 0.0537831, 958.05, -8.25)" opacity="1">
<path style="fill:#8BC34A;fill-opacity:1" d="M51.5 -51.5L51.5 51.5L-51.5 51.5L-51.5 -51.5L51.5 -51.5" />
</g>
<g id="PathID_70" transform="matrix(0.546839, 0, -0.0333542, 0.0537831, 958.05, -8.25)" opacity="1">
</g>
<g id="PathID_71" transform="matrix(2.08554, 0, -0.0110542, 0.979062, 1347.45, 210.35)" opacity="1">
<path style="fill:#8BC34A;fill-opacity:1" d="M13.15 -0.05L3.35 -37.45L10.05 -37.45L19.75 -0.05L13.15 -0.05M22.7 -37.45L29.3 -37.45L23.25 -14.05L21.9 -14.05L19.1 -23.5L22.7 -37.45" />
</g>
<g id="PathID_72" transform="matrix(2.08554, 0, -0.0110542, 0.979062, 1347.45, 210.35)" opacity="1">
</g>
<g id="PathID_73" transform="matrix(0.546839, 0, -0.0333542, 0.0537831, 1384.15, 167.85)" opacity="1">
<path style="fill:#8BC34A;fill-opacity:1" d="M51.5 -51.5L51.5 51.5L-51.5 51.5L-51.5 -51.5L51.5 -51.5" />
</g>
<g id="PathID_74" transform="matrix(0.546839, 0, -0.0333542, 0.0537831, 1384.15, 167.85)" opacity="1">
</g>
<g id="PathID_75" transform="matrix(2.08554, 0, -0.0110542, 0.979062, 1481.3, 209.6)" opacity="1">
<path style="fill:#8BC34A;fill-opacity:1" d="M13.15 -0.05L3.35 -37.45L10.05 -37.45L19.75 -0.05L13.15 -0.05M22.7 -37.45L29.3 -37.45L23.25 -14.05L21.9 -14.05L19.1 -23.5L22.7 -37.45" />
</g>
<g id="PathID_76" transform="matrix(2.08554, 0, -0.0110542, 0.979062, 1481.3, 209.6)" opacity="1">
</g>
<g id="PathID_77" transform="matrix(0.546839, 0, -0.0333542, 0.0537831, 1518, 167.1)" opacity="1">
<path style="fill:#8BC34A;fill-opacity:1" d="M51.5 -51.5L51.5 51.5L-51.5 51.5L-51.5 -51.5L51.5 -51.5" />
</g>
<g id="PathID_78" transform="matrix(0.546839, 0, -0.0333542, 0.0537831, 1518, 167.1)" opacity="1">
</g>
<g id="PathID_79" transform="matrix(2.08554, 0, -0.0110542, 0.979062, 1803.6, 208.85)" opacity="1">
<path style="fill:#8BC34A;fill-opacity:1" d="M13.15 -0.05L3.35 -37.45L10.05 -37.45L19.75 -0.05L13.15 -0.05M22.7 -37.45L29.3 -37.45L23.25 -14.05L21.9 -14.05L19.1 -23.5L22.7 -37.45" />
</g>
<g id="PathID_80" transform="matrix(2.08554, 0, -0.0110542, 0.979062, 1803.6, 208.85)" opacity="1">
</g>
<g id="PathID_81" transform="matrix(0.546839, 0, -0.0333542, 0.0537831, 1840.3, 166.35)" opacity="1">
<path style="fill:#8BC34A;fill-opacity:1" d="M51.5 -51.5L51.5 51.5L-51.5 51.5L-51.5 -51.5L51.5 -51.5" />
</g>
<g id="PathID_82" transform="matrix(0.546839, 0, -0.0333542, 0.0537831, 1840.3, 166.35)" opacity="1">
</g>
<g id="PathID_83" transform="matrix(4.83851, 0, -0.0256462, 2.27146, 19.85, 122)" opacity="1">
<path style="fill:#808080;fill-opacity:1" d="M13.15 -0.05L3.35 -37.45L10.05 -37.45L19.75 -0.05L13.15 -0.05M22.7 -37.45L29.3 -37.45L23.25 -14.05L21.9 -14.05L19.1 -23.5L22.7 -37.45" />
</g>
<g id="PathID_84" transform="matrix(4.83851, 0, -0.0256462, 2.27146, 19.85, 122)" opacity="1">
</g>
<g id="PathID_85" transform="matrix(1.26868, 0, -0.0773829, 0.124779, 104.9, 23.25)" opacity="1">
<path style="fill:#808080;fill-opacity:1" d="M51.5 -51.5L51.5 51.5L-51.5 51.5L-51.5 -51.5L51.5 -51.5" />
</g>
<g id="PathID_86" transform="matrix(1.26868, 0, -0.0773829, 0.124779, 104.9, 23.25)" opacity="1">
</g>
<g id="PathID_87" transform="matrix(2.08554, 0, -0.0110542, 0.979062, 157.15, 97.7)" opacity="1">
<path style="fill:#808080;fill-opacity:1" d="M13.15 -0.05L3.35 -37.45L10.05 -37.45L19.75 -0.05L13.15 -0.05M22.7 -37.45L29.3 -37.45L23.25 -14.05L21.9 -14.05L19.1 -23.5L22.7 -37.45" />
</g>
<g id="PathID_88" transform="matrix(2.08554, 0, -0.0110542, 0.979062, 157.15, 97.7)" opacity="1">
</g>
<g id="PathID_89" transform="matrix(0.546839, 0, -0.0333542, 0.0537831, 193.85, 55.2)" opacity="1">
<path style="fill:#808080;fill-opacity:1" d="M51.5 -51.5L51.5 51.5L-51.5 51.5L-51.5 -51.5L51.5 -51.5" />
</g>
<g id="PathID_90" transform="matrix(0.546839, 0, -0.0333542, 0.0537831, 193.85, 55.2)" opacity="1">
</g>
<g id="PathID_91" transform="matrix(4.83851, 0, -0.0256462, 2.27146, 618.05, 234.95)" opacity="1">
<path style="fill:#808080;fill-opacity:1" d="M13.15 -0.05L3.35 -37.45L10.05 -37.45L19.75 -0.05L13.15 -0.05M22.7 -37.45L29.3 -37.45L23.25 -14.05L21.9 -14.05L19.1 -23.5L22.7 -37.45" />
</g>
<g id="PathID_92" transform="matrix(4.83851, 0, -0.0256462, 2.27146, 618.05, 234.95)" opacity="1">
</g>
<g id="PathID_93" transform="matrix(1.26868, 0, -0.0773829, 0.124779, 703.2, 136.3)" opacity="1">
<path style="fill:#808080;fill-opacity:1" d="M51.5 -51.5L51.5 51.5L-51.5 51.5L-51.5 -51.5L51.5 -51.5" />
</g>
<g id="PathID_94" transform="matrix(1.26868, 0, -0.0773829, 0.124779, 703.2, 136.3)" opacity="1">
</g>
<g id="PathID_95" transform="matrix(4.83851, 0, -0.0256462, 2.27146, 185.2, 213.45)" opacity="1">
<path style="fill:#808080;fill-opacity:1" d="M13.15 -0.05L3.35 -37.45L10.05 -37.45L19.75 -0.05L13.15 -0.05M22.7 -37.45L29.3 -37.45L23.25 -14.05L21.9 -14.05L19.1 -23.5L22.7 -37.45" />
</g>
<g id="PathID_96" transform="matrix(4.83851, 0, -0.0256462, 2.27146, 185.2, 213.45)" opacity="1">
</g>
<g id="PathID_97" transform="matrix(1.26868, 0, -0.0773829, 0.124779, 270.35, 114.8)" opacity="1">
<path style="fill:#808080;fill-opacity:1" d="M51.5 -51.5L51.5 51.5L-51.5 51.5L-51.5 -51.5L51.5 -51.5" />
</g>
<g id="PathID_98" transform="matrix(1.26868, 0, -0.0773829, 0.124779, 270.35, 114.8)" opacity="1">
</g>
<g id="PathID_99" transform="matrix(4.83851, 0, -0.0256462, 2.27146, 743.55, 122.75)" opacity="1">
<path style="fill:#808080;fill-opacity:1" d="M13.15 -0.05L3.35 -37.45L10.05 -37.45L19.75 -0.05L13.15 -0.05M22.7 -37.45L29.3 -37.45L23.25 -14.05L21.9 -14.05L19.1 -23.5L22.7 -37.45" />
</g>
<g id="PathID_100" transform="matrix(4.83851, 0, -0.0256462, 2.27146, 743.55, 122.75)" opacity="1">
</g>
<g id="PathID_101" transform="matrix(1.26868, 0, -0.0773829, 0.124779, 828.7, 24.05)" opacity="1">
<path style="fill:#808080;fill-opacity:1" d="M51.5 -51.5L51.5 51.5L-51.5 51.5L-51.5 -51.5L51.5 -51.5" />
</g>
<g id="PathID_102" transform="matrix(1.26868, 0, -0.0773829, 0.124779, 828.7, 24.05)" opacity="1">
</g>
<g id="PathID_103" transform="matrix(4.83851, 0, -0.0256462, 2.27146, 827, 263.45)" opacity="1">
<path style="fill:#808080;fill-opacity:1" d="M13.15 -0.05L3.35 -37.45L10.05 -37.45L19.75 -0.05L13.15 -0.05M22.7 -37.45L29.3 -37.45L23.25 -14.05L21.9 -14.05L19.1 -23.5L22.7 -37.45" />
</g>
<g id="PathID_104" transform="matrix(4.83851, 0, -0.0256462, 2.27146, 827, 263.45)" opacity="1">
</g>
<g id="PathID_105" transform="matrix(1.26868, 0, -0.0773829, 0.124779, 912.15, 164.8)" opacity="1">
<path style="fill:#808080;fill-opacity:1" d="M51.5 -51.5L51.5 51.5L-51.5 51.5L-51.5 -51.5L51.5 -51.5" />
</g>
<g id="PathID_106" transform="matrix(1.26868, 0, -0.0773829, 0.124779, 912.15, 164.8)" opacity="1">
</g>
<g id="PathID_107" transform="matrix(4.83851, 0, -0.0256462, 2.27146, 949.85, 150.4)" opacity="1">
<path style="fill:#808080;fill-opacity:1" d="M13.15 -0.05L3.35 -37.45L10.05 -37.45L19.75 -0.05L13.15 -0.05M22.7 -37.45L29.3 -37.45L23.25 -14.05L21.9 -14.05L19.1 -23.5L22.7 -37.45" />
</g>
<g id="PathID_108" transform="matrix(4.83851, 0, -0.0256462, 2.27146, 949.85, 150.4)" opacity="1">
</g>
<g id="PathID_109" transform="matrix(1.26868, 0, -0.0773829, 0.124779, 1035, 51.75)" opacity="1">
<path style="fill:#808080;fill-opacity:1" d="M51.5 -51.5L51.5 51.5L-51.5 51.5L-51.5 -51.5L51.5 -51.5" />
</g>
<g id="PathID_110" transform="matrix(1.26868, 0, -0.0773829, 0.124779, 1035, 51.75)" opacity="1">
</g>
<g id="PathID_111" transform="matrix(4.83851, 0, -0.0256462, 2.27146, 1168.4, 235.35)" opacity="1">
<path style="fill:#808080;fill-opacity:1" d="M13.15 -0.05L3.35 -37.45L10.05 -37.45L19.75 -0.05L13.15 -0.05M22.7 -37.45L29.3 -37.45L23.25 -14.05L21.9 -14.05L19.1 -23.5L22.7 -37.45" />
</g>
<g id="PathID_112" transform="matrix(4.83851, 0, -0.0256462, 2.27146, 1168.4, 235.35)" opacity="1">
</g>
<g id="PathID_113" transform="matrix(1.26868, 0, -0.0773829, 0.124779, 1253.55, 136.7)" opacity="1">
<path style="fill:#808080;fill-opacity:1" d="M51.5 -51.5L51.5 51.5L-51.5 51.5L-51.5 -51.5L51.5 -51.5" />
</g>
<g id="PathID_114" transform="matrix(1.26868, 0, -0.0773829, 0.124779, 1253.55, 136.7)" opacity="1">
</g>
<g id="PathID_115" transform="matrix(4.83851, 0, -0.0256462, 2.27146, 1349.65, 58.9)" opacity="1">
<path style="fill:#808080;fill-opacity:1" d="M13.15 -0.05L3.35 -37.45L10.05 -37.45L19.75 -0.05L13.15 -0.05M22.7 -37.45L29.3 -37.45L23.25 -14.05L21.9 -14.05L19.1 -23.5L22.7 -37.45" />
</g>
<g id="PathID_116" transform="matrix(4.83851, 0, -0.0256462, 2.27146, 1349.65, 58.9)" opacity="1">
</g>
<g id="PathID_117" transform="matrix(1.26868, 0, -0.0773829, 0.124779, 1434.8, -39.75)" opacity="1">
<path style="fill:#808080;fill-opacity:1" d="M51.5 -51.5L51.5 51.5L-51.5 51.5L-51.5 -51.5L51.5 -51.5" />
</g>
<g id="PathID_118" transform="matrix(1.26868, 0, -0.0773829, 0.124779, 1434.8, -39.75)" opacity="1">
</g>
<g id="PathID_119" transform="matrix(4.83851, 0, -0.0256462, 2.27146, 1550.3, 236.5)" opacity="1">
<path style="fill:#808080;fill-opacity:1" d="M13.15 -0.05L3.35 -37.45L10.05 -37.45L19.75 -0.05L13.15 -0.05M22.7 -37.45L29.3 -37.45L23.25 -14.05L21.9 -14.05L19.1 -23.5L22.7 -37.45" />
</g>
<g id="PathID_120" transform="matrix(4.83851, 0, -0.0256462, 2.27146, 1550.3, 236.5)" opacity="1">
</g>
<g id="PathID_121" transform="matrix(1.26868, 0, -0.0773829, 0.124779, 1635.45, 137.85)" opacity="1">
<path style="fill:#808080;fill-opacity:1" d="M51.5 -51.5L51.5 51.5L-51.5 51.5L-51.5 -51.5L51.5 -51.5" />
</g>
<g id="PathID_122" transform="matrix(1.26868, 0, -0.0773829, 0.124779, 1635.45, 137.85)" opacity="1">
</g>
<g id="PathID_123" transform="matrix(4.83851, 0, -0.0256462, 2.27146, 1632.05, 87.75)" opacity="1">
<path style="fill:#808080;fill-opacity:1" d="M13.15 -0.05L3.35 -37.45L10.05 -37.45L19.75 -0.05L13.15 -0.05M22.7 -37.45L29.3 -37.45L23.25 -14.05L21.9 -14.05L19.1 -23.5L22.7 -37.45" />
</g>
<g id="PathID_124" transform="matrix(4.83851, 0, -0.0256462, 2.27146, 1632.05, 87.75)" opacity="1">
</g>
<g id="PathID_125" transform="matrix(1.26868, 0, -0.0773829, 0.124779, 1717.2, -10.9)" opacity="1">
<path style="fill:#808080;fill-opacity:1" d="M51.5 -51.5L51.5 51.5L-51.5 51.5L-51.5 -51.5L51.5 -51.5" />
</g>
<g id="PathID_126" transform="matrix(1.26868, 0, -0.0773829, 0.124779, 1717.2, -10.9)" opacity="1">
</g>
<g id="PathID_127" transform="matrix(4.83851, 0, -0.0256462, 2.27146, 389.4, 149.6)" opacity="1">
<path style="fill:#808080;fill-opacity:1" d="M13.15 -0.05L3.35 -37.45L10.05 -37.45L19.75 -0.05L13.15 -0.05M22.7 -37.45L29.3 -37.45L23.25 -14.05L21.9 -14.05L19.1 -23.5L22.7 -37.45" />
</g>
<g id="PathID_128" transform="matrix(4.83851, 0, -0.0256462, 2.27146, 389.4, 149.6)" opacity="1">
</g>
<g id="PathID_129" transform="matrix(1.26868, 0, -0.0773829, 0.124779, 474.55, 50.95)" opacity="1">
<path style="fill:#808080;fill-opacity:1" d="M51.5 -51.5L51.5 51.5L-51.5 51.5L-51.5 -51.5L51.5 -51.5" />
</g>
<g id="PathID_130" transform="matrix(1.26868, 0, -0.0773829, 0.124779, 474.55, 50.95)" opacity="1">
</g>
</svg>
