<?xml version="1.0" encoding="utf-8"?>
<svg version="1.1" id="Layer_1"
xmlns="http://www.w3.org/2000/svg"
xmlns:xlink="http://www.w3.org/1999/xlink"
width="127px" height="32px"
xml:space="preserve">
<g id="PathID_25" transform="matrix(0.993401, 0, -4.07727e-008, 0.466386, -2.05, 27.25)" opacity="1">
<path style="fill:#8BC34A;fill-opacity:1" d="M13.15 -0.05L3.35 -37.45L10.05 -37.45L19.75 -0.05L13.15 -0.05M22.7 -37.45L29.3 -37.45L23.25 -14.05L21.9 -14.05L19.1 -23.5L22.7 -37.45" />
</g>
<g id="PathID_26" transform="matrix(0.993401, 0, -4.07727e-008, 0.466386, -2.05, 27.25)" opacity="1">
</g>
<g id="PathID_27" transform="matrix(0.260475, 0, -0.0155983, 0.0256201, 15.05, 7.05)" opacity="1">
<path style="fill:#8BC34A;fill-opacity:1" d="M51.5 -51.5L51.5 51.5L-51.5 51.5L-51.5 -51.5L51.5 -51.5" />
</g>
<g id="PathID_28" transform="matrix(0.260475, 0, -0.0155983, 0.0256201, 15.05, 7.05)" opacity="1">
</g>
<g id="PathID_29" transform="matrix(0.312773, 0, 0, 0.312773, 31.4, 23.85)" opacity="1">
<path style="fill:#020202;fill-opacity:1" d="M34.2 -36.85L39.7 -36.85L39.7 0L33.15 0L8.4 -29.5L8.4 0L2.85 0L2.85 -36.85L9.4 -36.85L34.2 -7.35L34.2 -36.85" />
</g>
<g id="PathID_30" transform="matrix(0.312773, 0, 0, 0.312773, 31.4, 23.85)" opacity="1">
</g>
<g id="PathID_31" transform="matrix(0.312773, 0, 0, 0.312773, 44.7, 23.85)" opacity="1">
<path style="fill:#020202;fill-opacity:1" d="M26.2 -29.7Q27.6 -29.7 28.8 -29.2Q30 -28.65 30.9 -27.75Q31.85 -26.8 32.35 -25.6Q32.85 -24.4 32.85 -23.05L32.85 0L9.3 0Q7.95 0 6.75 -0.5Q5.55 -1 4.6 -1.95Q3.7 -2.85 3.15 -4.05Q2.65 -5.25 2.65 -6.65L2.65 -17.6L27.35 -17.6L27.35 -23.05Q27.35 -23.5 27 -23.85Q26.65 -24.15 26.2 -24.15L2.65 -24.15L2.65 -29.7L26.2 -29.7M27.35 -12.05L8.2 -12.05L8.2 -6.65Q8.2 -6.2 8.5 -5.85Q8.85 -5.5 9.3 -5.5L27.35 -5.5L27.35 -12.05" />
</g>
<g id="PathID_32" transform="matrix(0.312773, 0, 0, 0.312773, 44.7, 23.85)" opacity="1">
</g>
<g id="PathID_33" transform="matrix(0.312773, 0, 0, 0.312773, 55.85, 23.85)" opacity="1">
<path style="fill:#020202;fill-opacity:1" d="M2.65 -23.05L2.65 -39.4L8.2 -39.4L8.2 -6.65Q8.2 -6.2 8.5 -5.85Q8.85 -5.5 9.3 -5.5L14.85 -5.5L14.85 0L9.3 0Q7.95 0 6.75 -0.5Q5.55 -1 4.6 -1.95Q3.7 -2.85 3.15 -4.05Q2.65 -5.25 2.65 -6.65L2.65 -23.05" />
</g>
<g id="PathID_34" transform="matrix(0.312773, 0, 0, 0.312773, 55.85, 23.85)" opacity="1">
</g>
<g id="PathID_35" transform="matrix(0.312773, 0, 0, 0.312773, 60.65, 23.85)" opacity="1">
<path style="fill:#020202;fill-opacity:1" d="M26.15 -29.7Q27.55 -29.7 28.75 -29.2Q29.95 -28.65 30.85 -27.75Q31.8 -26.8 32.3 -25.6Q32.8 -24.4 32.8 -23.05L32.8 -12.05L8.1 -12.05L8.1 -6.65Q8.1 -6.2 8.45 -5.85Q8.8 -5.5 9.25 -5.5L32.8 -5.5L32.8 0L9.25 0Q7.85 0 6.65 -0.5Q5.45 -1 4.55 -1.95Q3.6 -2.85 3.1 -4.05Q2.6 -5.25 2.6 -6.65L2.6 -23.05Q2.6 -24.4 3.1 -25.6Q3.6 -26.8 4.55 -27.75Q5.45 -28.65 6.65 -29.2Q7.85 -29.7 9.25 -29.7L26.15 -29.7M27.3 -17.6L27.3 -23.05Q27.3 -23.5 26.95 -23.85Q26.6 -24.15 26.15 -24.15L9.25 -24.15Q8.8 -24.15 8.45 -23.85Q8.1 -23.5 8.1 -23.05L8.1 -17.6L27.3 -17.6" />
</g>
<g id="PathID_36" transform="matrix(0.312773, 0, 0, 0.312773, 60.65, 23.85)" opacity="1">
</g>
<g id="PathID_37" transform="matrix(0.312773, 0, 0, 0.312773, 71.7, 23.85)" opacity="1">
<path style="fill:#020202;fill-opacity:1" d="M26.3 -29.7Q27.7 -29.7 28.9 -29.2Q30.1 -28.65 31 -27.75Q31.95 -26.8 32.45 -25.6Q32.95 -24.4 32.95 -23.05L32.95 -6.65Q32.95 -5.25 32.45 -4.05Q31.95 -2.85 31 -1.95Q30.1 -1 28.9 -0.5Q27.7 0 26.3 0L8.3 0L8.3 11.75L2.75 11.75L2.75 -29.7L26.3 -29.7M27.45 -23.05Q27.45 -23.5 27.1 -23.85Q26.75 -24.15 26.3 -24.15L9.4 -24.15Q8.95 -24.15 8.6 -23.85Q8.3 -23.5 8.3 -23.05L8.3 -6.65Q8.3 -6.2 8.6 -5.85Q8.95 -5.5 9.4 -5.5L26.3 -5.5Q26.75 -5.5 27.1 -5.85Q27.45 -6.2 27.45 -6.65L27.45 -23.05" />
</g>
<g id="PathID_38" transform="matrix(0.312773, 0, 0, 0.312773, 71.7, 23.85)" opacity="1">
</g>
<g id="PathID_39" transform="matrix(0.312773, 0, 0, 0.312773, 82.3, 23.85)" opacity="1">
<path style="fill:#020202;fill-opacity:1" d="M2.65 -29.7L8.2 -29.7L8.2 0L2.65 0L2.65 -29.7M4.55 -45.1L10.1 -45.1L8.05 -36.8L2.5 -36.8L4.55 -45.1" />
</g>
<g id="PathID_40" transform="matrix(0.312773, 0, 0, 0.312773, 82.3, 23.85)" opacity="1">
</g>
<g id="PathID_41" transform="matrix(0.312773, 0, 0, 0.312773, 85.7, 23.85)" opacity="1">
<path style="fill:#020202;fill-opacity:1" d="M40.7 -29.7Q42.05 -29.7 43.25 -29.2Q44.45 -28.65 45.4 -27.75Q46.3 -26.8 46.85 -25.6Q47.35 -24.4 47.35 -23.05L47.35 0L41.85 0L41.85 -23.05Q41.85 -23.5 41.55 -23.85Q41.2 -24.15 40.7 -24.15L28.95 -24.15Q28.5 -24.15 28.15 -23.85Q27.85 -23.5 27.85 -23.05L27.85 0L22.3 0L22.3 -23.05Q22.3 -23.5 22 -23.85Q21.65 -24.15 21.2 -24.15L9.4 -24.15Q8.95 -24.15 8.6 -23.85Q8.3 -23.5 8.3 -23.05L8.3 0L2.75 0L2.75 -29.7L40.7 -29.7" />
</g>
<g id="PathID_42" transform="matrix(0.312773, 0, 0, 0.312773, 85.7, 23.85)" opacity="1">
</g>
<g id="PathID_43" transform="matrix(0.312773, 0, 0, 0.312773, 101.35, 23.85)" opacity="1">
<path style="fill:#020202;fill-opacity:1" d="M8.3 0L2.75 0L2.75 -5.5L8.3 -5.5L8.3 0" />
</g>
<g id="PathID_44" transform="matrix(0.312773, 0, 0, 0.312773, 101.35, 23.85)" opacity="1">
</g>
<g id="PathID_45" transform="matrix(0.312773, 0, 0, 0.312773, 104.75, 23.85)" opacity="1">
<path style="fill:#020202;fill-opacity:1" d="M32.8 -5.5L32.8 0L9.25 0Q7.9 0 6.7 -0.5Q5.5 -1 4.55 -1.95Q3.65 -2.85 3.1 -4.05Q2.6 -5.25 2.6 -6.65L2.6 -23.05Q2.6 -24.4 3.1 -25.6Q3.65 -26.8 4.55 -27.75Q5.5 -28.65 6.7 -29.2Q7.9 -29.7 9.25 -29.7L32.7 -29.7L32.7 -24.15L9.25 -24.15Q8.8 -24.15 8.45 -23.85Q8.15 -23.5 8.15 -23.05L8.15 -6.65Q8.15 -6.2 8.45 -5.85Q8.8 -5.5 9.25 -5.5L32.8 -5.5" />
</g>
<g id="PathID_46" transform="matrix(0.312773, 0, 0, 0.312773, 104.75, 23.85)" opacity="1">
</g>
<g id="PathID_47" transform="matrix(0.312773, 0, 0, 0.312773, 115.9, 23.85)" opacity="1">
<path style="fill:#020202;fill-opacity:1" d="M2.75 -29.7L32.95 -29.7L32.95 -23.15L10.15 -5.5L32.95 -5.5L32.95 0L2.75 0L2.75 -6.55L25.6 -24.15L2.75 -24.15L2.75 -29.7" />
</g>
<g id="PathID_48" transform="matrix(0.312773, 0, 0, 0.312773, 115.9, 23.85)" opacity="1">
</g>
</svg>
